# xmcd
#
# Track frame offsets:
#	150
#	14617
#	31057
#
# Disc length: 556 seconds
#
# Revision: 1
# Processed by: cddbd v1.5.1PL0 Copyright (c) Steve Scherf et al.
# Submitted via: EasyCDDAExtractor 8.2.1.1
#
DISCID=19022a03
DTITLE=The Chevelles - Girl for me
DYEAR=2000
DGENRE=Blues
TTITLE0=Girl for me
TTITLE1=Valentine
TTITLE2=On my mind
EXTD=
EXTT0=
EXTT1=
EXTT2=
PLAYORDER=
